<?xml version="1.0" encoding="utf-8"?>
<!-- Generator: Adobe Illustrator 16.0.4, SVG Export Plug-In . SVG Version: 6.00 Build 0)  -->
<!DOCTYPE svg PUBLIC "-//W3C//DTD SVG 1.1//EN" "http://www.w3.org/Graphics/SVG/1.1/DTD/svg11.dtd">
<svg version="1.1" id="Layer_1" xmlns="http://www.w3.org/2000/svg" xmlns:xlink="http://www.w3.org/1999/xlink" x="0px" y="0px"
	 width="500px" height="500px" viewBox="0 0 500 500" enable-background="new 0 0 500 500" xml:space="preserve">
<line fill="none" stroke="#000000" stroke-width="7" stroke-miterlimit="10" x1="117.5" y1="188.563" x2="117.5" y2="210.345"/>
<line fill="none" stroke="#000000" stroke-width="7" stroke-miterlimit="10" x1="210.5" y1="188.563" x2="210.5" y2="210.345"/>
<path fill="#E02424" stroke="#7F1616" stroke-width="7" stroke-miterlimit="10" d="M404.545,132.5c0,6.627-5.373,5-12,5h-4
	c-6.628,0-12,1.627-12-5v-17c0-6.627,5.372-12,12-12h4c6.627,0,12,5.373,12,12V132.5z"/>
<path fill="#CC2E2E" stroke="#931212" stroke-width="7" stroke-miterlimit="10" d="M481.295,216.5v123.698H36.137l0.267-131.695
	l270.102-0.525c0-3.081,2.496-71.579,5.577-71.579h121.724C436.887,136.399,479.9,182.101,481.295,216.5"/>
<path fill="#A52828" stroke="#931212" stroke-width="7" stroke-miterlimit="10" d="M491.5,328.35c0,6.544-5.305,11.849-11.85,11.849
	H35.349c-6.544,0-11.849-5.305-11.849-11.849l0,0c0-6.545,5.305-11.85,11.849-11.85H479.65
	C486.195,316.5,491.5,321.805,491.5,328.35L491.5,328.35z"/>
<circle stroke="#515151" stroke-width="7" stroke-miterlimit="10" cx="103.929" cy="331.654" r="45.739"/>
<circle fill="#A3A3A3" stroke="#7A7A7A" stroke-width="7" stroke-miterlimit="10" cx="103.929" cy="331.654" r="23.888"/>
<circle stroke="#515151" stroke-width="7" stroke-miterlimit="10" cx="416.216" cy="331.654" r="45.738"/>
<circle fill="#A3A3A3" stroke="#7A7A7A" stroke-width="7" stroke-miterlimit="10" cx="414.646" cy="331.654" r="23.889"/>
<polyline fill="none" stroke="#E21717" stroke-width="3" stroke-miterlimit="10" points="368.834,115.667 348.166,122.588 
	366.166,110.745 353.5,108.745 362.166,102.078 338.166,83.412 376.545,97.412 "/>
<polyline fill="none" stroke="#E21717" stroke-width="3" stroke-miterlimit="10" points="412.255,115.667 432.922,122.588 
	414.922,110.745 427.588,108.745 418.922,102.078 442.922,83.412 404.544,97.412 "/>
<path fill="#90B5DD" stroke="#557FA5" stroke-width="7" stroke-miterlimit="10" d="M454.579,207.092c0,1.558,0.149,1.41-1.77,1.41
	h-56.453c-1.919,0-3.474-1.264-3.474-2.821v-55.245c0-1.558,1.555-2.821,3.474-2.821h22.871c1.918,0,28.003,14.34,28.873,31.736
	L454.579,207.092z"/>
<path fill="#90B5DD" stroke="#557FA5" stroke-width="7" stroke-miterlimit="10" d="M377.545,200.735
	c0,4.289-1.246,7.767-2.784,7.767h-51.888c-1.537,0-2.784-3.478-2.784-7.767v-45.352c0-4.29,1.247-7.767,2.784-7.767h51.888
	c1.538,0,2.784,3.478,2.784,7.767V200.735z"/>
<rect x="250" y="226.5" fill="#CC2E2E" stroke="#931212" stroke-width="7" stroke-miterlimit="10" width="55.5" height="59.416"/>
<path fill="#CC2E2E" stroke="#931212" stroke-width="7" stroke-miterlimit="10" d="M415.541,266.002
	c13.698,0,26.257,3.754,36.041,9.996v-51.996H379.5v51.996C389.284,269.756,401.843,266.002,415.541,266.002z"/>
<path fill="#CC2E2E" stroke="#931212" stroke-width="7" stroke-miterlimit="10" d="M103.541,266.002
	c13.698,0,26.257,3.754,36.041,9.996v-51.996H67.5v51.996C77.284,269.756,89.843,266.002,103.541,266.002z"/>
<line fill="none" stroke="#000000" stroke-width="7" stroke-miterlimit="10" x1="36.137" y1="147.616" x2="289.5" y2="147.616"/>
<line fill="none" stroke="#000000" stroke-width="7" stroke-miterlimit="10" x1="36.137" y1="191.5" x2="289.5" y2="191.5"/>
<line fill="none" stroke="#000000" stroke-width="7" stroke-miterlimit="10" x1="58.191" y1="147.616" x2="58.191" y2="191.5"/>
<line fill="none" stroke="#000000" stroke-width="7" stroke-miterlimit="10" x1="81.447" y1="147.616" x2="81.447" y2="191.5"/>
<line fill="none" stroke="#000000" stroke-width="7" stroke-miterlimit="10" x1="104.704" y1="147.616" x2="104.704" y2="191.5"/>
<line fill="none" stroke="#000000" stroke-width="7" stroke-miterlimit="10" x1="127.96" y1="147.616" x2="127.96" y2="191.5"/>
<line fill="none" stroke="#000000" stroke-width="7" stroke-miterlimit="10" x1="151.217" y1="147.616" x2="151.217" y2="191.5"/>
<line fill="none" stroke="#000000" stroke-width="7" stroke-miterlimit="10" x1="174.474" y1="147.616" x2="174.474" y2="191.5"/>
<line fill="none" stroke="#000000" stroke-width="7" stroke-miterlimit="10" x1="197.73" y1="147.616" x2="197.73" y2="191.5"/>
<line fill="none" stroke="#000000" stroke-width="7" stroke-miterlimit="10" x1="220.987" y1="147.616" x2="220.987" y2="191.5"/>
<line fill="none" stroke="#000000" stroke-width="7" stroke-miterlimit="10" x1="244.244" y1="147.616" x2="244.244" y2="191.5"/>
<line fill="none" stroke="#000000" stroke-width="7" stroke-miterlimit="10" x1="267.5" y1="147.616" x2="267.5" y2="191.5"/>
</svg>
