<?xml version="1.0" encoding="UTF-8"?>
<svg width="48px" height="48px" viewBox="0 0 48 48" version="1.1" xmlns="http://www.w3.org/2000/svg" xmlns:xlink="http://www.w3.org/1999/xlink">
    <!-- Generator: Sketch 42 (36781) - http://www.bohemiancoding.com/sketch -->
    <title>lit-icon</title>
    <desc>Created with Sketch.</desc>
    <defs></defs>
    <g id="Page-1" stroke="none" stroke-width="1" fill="none" fill-rule="evenodd">
        <g id="lit-icon" fill="#9B60CF">
            <g transform="translate(7.000000, 5.000000)">
                <path d="M21.890247,6.82076865 C18.7218762,3.40334501 15.8604735,1.00194944 15.8604735,1.00194944 C15.4466121,0.642492278 14.7671025,0.646484069 14.3617488,1.00194944 C14.3617488,1.00194944 0,13.0548629 0,21.5828407 C0,30.1108186 7.55555556,37.0241105 15.1111111,37.0241105 C22.6666667,37.0241105 30.2222222,30.1108186 30.2222222,21.5828407 C30.2222222,19.8142654 29.604544,17.8940877 28.625382,15.9612517 C27.5953463,17.0474182 26.1526048,17.7225232 24.5555556,17.7225232 C21.425942,17.7225232 18.8888889,15.1300387 18.8888889,11.9320471 C18.8888889,9.74462827 20.0758562,7.84049771 21.8275334,6.85550837 C21.8483585,6.8437982 21.8692633,6.83221793 21.890247,6.82076865 Z" id="Combined-Shape"></path>
                <ellipse id="Oval" cx="30.2222222" cy="8.07172959" rx="3.77777778" ry="3.86031746"></ellipse>
            </g>
        </g>
    </g>
</svg>