<?xml version="1.0" encoding="UTF-8" standalone="no"?>
<svg width="150px" height="150px" viewBox="0 0 150 150" version="1.1" xmlns="http://www.w3.org/2000/svg" xmlns:xlink="http://www.w3.org/1999/xlink">
    <!-- Generator: Sketch 39.1 (31720) - http://www.bohemiancoding.com/sketch -->
    <title>@3x</title>
    <desc>Created with Sketch.</desc>
    <defs></defs>
    <g id="splash-screen" stroke="none" stroke-width="1" fill="none" fill-rule="evenodd">
        <g id="@3x" fill="#FFFFFF">
            <g id="logo_white" transform="translate(15.000000, 15.000000)">
                <path d="M54.8113209,118.252051 C57.2678494,120.44913 61.2805447,120.451566 63.7292936,118.231761 C63.7292936,118.231761 109.62963,79.1372353 109.62963,50.981133 C109.62963,22.8250307 87.0780467,0 59.2592593,0 C31.4404719,0 8.88888889,22.8250307 8.88888889,50.981133 C8.88888889,79.1372353 54.8113209,118.252051 54.8113209,118.252051 Z M54.8069052,106.181279 C57.2658724,108.392026 61.2696743,108.409871 63.7215348,106.172088 C63.7215348,106.172088 101.234568,74.2733734 101.234568,50.8099549 C101.234568,27.3465363 82.4415821,8.32567737 59.2592593,8.32567737 C36.0769364,8.32567737 17.2839506,27.3465363 17.2839506,50.8099549 C17.2839506,74.2733734 54.8069052,106.181279 54.8069052,106.181279 Z" id="Combined-Shape"></path>
                <rect id="Rectangle-1" transform="translate(58.993899, 59.869536) rotate(45.000000) translate(-58.993899, -59.869536) " x="51.5864911" y="52.4621287" width="14.8148148" height="14.8148148" rx="3"></rect>
                <g id="eye" transform="translate(59.259259, 25.185185)">
                    <path d="M44.4444444,22.2222222 C44.4444444,34.4952167 34.4952167,44.4444444 22.2222222,44.4444444 C9.94922778,44.4444444 0,34.4952167 0,22.2222222 C0,9.94922778 9.94922778,0 22.2222222,0 L56.6647697,-4.36131298e-14 C62.1886648,-4.39513708e-14 63.5059614,3.16070525 59.5997558,7.06691083 L44.4444444,22.2222222 Z M22.2222222,37.037037 C30.4042185,37.037037 37.037037,30.4042185 37.037037,22.2222222 C37.037037,14.0402259 30.4042185,7.40740741 22.2222222,7.40740741 C14.0402259,7.40740741 7.40740741,14.0402259 7.40740741,22.2222222 C7.40740741,30.4042185 14.0402259,37.037037 22.2222222,37.037037 Z" id="Combined-Shape"></path>
                    <ellipse id="Oval-6" cx="22.2222222" cy="22.2222222" rx="4.44444444" ry="4.44444444"></ellipse>
                </g>
                <g id="eye" transform="translate(30.370370, 47.407407) scale(-1, 1) translate(-30.370370, -47.407407) translate(0.000000, 25.185185)">
                    <path d="M44.4444444,22.2222222 C44.4444444,34.4952167 34.4952167,44.4444444 22.2222222,44.4444444 C9.94922778,44.4444444 0,34.4952167 0,22.2222222 C0,9.94922778 9.94922778,0 22.2222222,0 L56.6647697,-4.00604161e-14 C62.1886648,-4.03986571e-14 63.5059614,3.16070525 59.5997558,7.06691083 L44.4444444,22.2222222 Z M22.2222222,37.037037 C30.4042185,37.037037 37.037037,30.4042185 37.037037,22.2222222 C37.037037,14.0402259 30.4042185,7.40740741 22.2222222,7.40740741 C14.0402259,7.40740741 7.40740741,14.0402259 7.40740741,22.2222222 C7.40740741,30.4042185 14.0402259,37.037037 22.2222222,37.037037 Z" id="Combined-Shape"></path>
                    <ellipse id="Oval-6" cx="22.2222222" cy="22.2222222" rx="4.44444444" ry="4.44444444"></ellipse>
                </g>
            </g>
        </g>
    </g>
</svg>