<?xml version="1.0" encoding="UTF-8" standalone="no"?>
<svg width="100px" height="100px" viewBox="0 0 100 100" version="1.1" xmlns="http://www.w3.org/2000/svg" xmlns:xlink="http://www.w3.org/1999/xlink">
    <!-- Generator: Sketch 39.1 (31720) - http://www.bohemiancoding.com/sketch -->
    <title>@2x</title>
    <desc>Created with Sketch.</desc>
    <defs></defs>
    <g id="splash-screen" stroke="none" stroke-width="1" fill="none" fill-rule="evenodd">
        <g id="@2x" fill="#FFFFFF">
            <g id="logo_white" transform="translate(10.000000, 10.000000)">
                <path d="M35.0643062,77.464136 C37.5174814,79.6857974 41.5186588,79.7030831 43.9480395,77.464136 C43.9480395,77.464136 73.0864198,52.7581569 73.0864198,33.987422 C73.0864198,15.2166871 58.0520311,0 39.5061728,0 C20.9603146,0 5.92592593,15.2166871 5.92592593,33.987422 C5.92592593,52.7581569 35.0643062,77.464136 35.0643062,77.464136 Z M35.0875395,69.4271545 C37.5278833,71.6522942 41.51868,71.6653054 43.9402478,69.4124921 C43.9402478,69.4124921 67.4897119,49.5155823 67.4897119,33.8733032 C67.4897119,18.2310242 54.9610547,5.55045158 39.5061728,5.55045158 C24.051291,5.55045158 11.5226337,18.2310242 11.5226337,33.8733032 C11.5226337,49.5155823 35.0875395,69.4271545 35.0875395,69.4271545 Z" id="Combined-Shape"></path>
                <rect id="Rectangle-1" transform="translate(39.329266, 39.913024) rotate(45.000000) translate(-39.329266, -39.913024) " x="34.3909941" y="34.9747524" width="9.87654321" height="9.87654321" rx="3"></rect>
                <g id="eye" transform="translate(39.506173, 16.790123)">
                    <path d="M29.6296296,14.8148148 C29.6296296,22.9968111 22.9968111,29.6296296 14.8148148,29.6296296 C6.63281852,29.6296296 0,22.9968111 0,14.8148148 C0,6.63281852 6.63281852,0 14.8148148,0 L34.4441874,-3.24240874e-14 C39.9671769,-3.2762273e-14 41.273555,3.1708894 37.3756486,7.06879581 L29.6296296,14.8148148 Z M14.8148148,24.691358 C20.269479,24.691358 24.691358,20.269479 24.691358,14.8148148 C24.691358,9.36015062 20.269479,4.9382716 14.8148148,4.9382716 C9.36015062,4.9382716 4.9382716,9.36015062 4.9382716,14.8148148 C4.9382716,20.269479 9.36015062,24.691358 14.8148148,24.691358 Z" id="Combined-Shape"></path>
                    <ellipse id="Oval-6" cx="14.8148148" cy="14.8148148" rx="2.96296296" ry="2.96296296"></ellipse>
                </g>
                <g id="eye" transform="translate(20.246914, 31.604938) scale(-1, 1) translate(-20.246914, -31.604938) translate(0.000000, 16.790123)">
                    <path d="M29.6296296,14.8148148 C29.6296296,22.9968111 22.9968111,29.6296296 14.8148148,29.6296296 C6.63281852,29.6296296 0,22.9968111 0,14.8148148 C0,6.63281852 6.63281852,0 14.8148148,0 L34.4441874,-3.06477306e-14 C39.9671769,-3.09859162e-14 41.273555,3.1708894 37.3756486,7.06879581 L29.6296296,14.8148148 Z M14.8148148,24.691358 C20.269479,24.691358 24.691358,20.269479 24.691358,14.8148148 C24.691358,9.36015062 20.269479,4.9382716 14.8148148,4.9382716 C9.36015062,4.9382716 4.9382716,9.36015062 4.9382716,14.8148148 C4.9382716,20.269479 9.36015062,24.691358 14.8148148,24.691358 Z" id="Combined-Shape"></path>
                    <ellipse id="Oval-6" cx="14.8148148" cy="14.8148148" rx="2.96296296" ry="2.96296296"></ellipse>
                </g>
            </g>
        </g>
    </g>
</svg>