<?xml version="1.0" encoding="UTF-8" standalone="no"?>
<svg width="50px" height="50px" viewBox="0 0 50 50" version="1.1" xmlns="http://www.w3.org/2000/svg" xmlns:xlink="http://www.w3.org/1999/xlink">
    <!-- Generator: Sketch 39.1 (31720) - http://www.bohemiancoding.com/sketch -->
    <title>@1x</title>
    <desc>Created with Sketch.</desc>
    <defs></defs>
    <g id="splash-screen" stroke="none" stroke-width="1" fill="none" fill-rule="evenodd">
        <g id="@1x" fill="#FFFFFF">
            <g id="logo_white" transform="translate(5.000000, 5.000000)">
                <path d="M15.3745639,36.6462981 C17.7927551,38.9090677 21.7450678,38.9461482 24.131609,36.6462981 C24.131609,36.6462981 36.5432099,26.3790784 36.5432099,16.993711 C36.5432099,7.60834357 29.0260156,0 19.7530864,0 C10.4801573,0 2.96296296,7.60834357 2.96296296,16.993711 C2.96296296,26.3790784 15.3745639,36.6462981 15.3745639,36.6462981 Z M15.4027004,32.6065227 C17.8053522,34.8827867 21.7429066,34.92121 24.1034725,32.6065227 C24.1034725,32.6065227 33.744856,24.7577911 33.744856,16.9366516 C33.744856,9.1155121 27.4805274,2.77522579 19.7530864,2.77522579 C12.0256455,2.77522579 5.76131687,9.1155121 5.76131687,16.9366516 C5.76131687,24.7577911 15.4027004,32.6065227 15.4027004,32.6065227 Z" id="Combined-Shape"></path>
                <rect id="Rectangle-1" transform="translate(19.664633, 19.956512) rotate(45.000000) translate(-19.664633, -19.956512) " x="17.195497" y="17.4873762" width="4.9382716" height="4.9382716" rx="2.4691358"></rect>
                <g id="eye" transform="translate(19.753086, 8.395062)">
                    <path d="M14.8148148,7.40740741 C14.8148148,11.4984056 11.4984056,14.8148148 7.40740741,14.8148148 C3.31640926,14.8148148 0,11.4984056 0,7.40740741 C0,3.31640926 3.31640926,0 7.40740741,0 L16.0788216,-1.61420385e-14 C19.4717281,-1.63497941e-14 20.2778326,1.94438966 17.8773902,4.34483204 L14.8148148,7.40740741 Z M7.40740741,12.345679 C10.1347395,12.345679 12.345679,10.1347395 12.345679,7.40740741 C12.345679,4.68007531 10.1347395,2.4691358 7.40740741,2.4691358 C4.68007531,2.4691358 2.4691358,4.68007531 2.4691358,7.40740741 C2.4691358,10.1347395 4.68007531,12.345679 7.40740741,12.345679 Z" id="Combined-Shape"></path>
                    <ellipse id="Oval-6" cx="7.40740741" cy="7.40740741" rx="1.48148148" ry="1.48148148"></ellipse>
                </g>
                <g id="eye" transform="translate(10.123457, 15.802469) scale(-1, 1) translate(-10.123457, -15.802469) translate(0.000000, 8.395062)">
                    <path d="M14.8148148,7.40740741 C14.8148148,11.4984056 11.4984056,14.8148148 7.40740741,14.8148148 C3.31640926,14.8148148 0,11.4984056 0,7.40740741 C0,3.31640926 3.31640926,0 7.40740741,0 L16.0788216,-1.52538601e-14 C19.4717281,-1.54616157e-14 20.2778326,1.94438966 17.8773902,4.34483204 L14.8148148,7.40740741 Z M7.40740741,12.345679 C10.1347395,12.345679 12.345679,10.1347395 12.345679,7.40740741 C12.345679,4.68007531 10.1347395,2.4691358 7.40740741,2.4691358 C4.68007531,2.4691358 2.4691358,4.68007531 2.4691358,7.40740741 C2.4691358,10.1347395 4.68007531,12.345679 7.40740741,12.345679 Z" id="Combined-Shape"></path>
                    <ellipse id="Oval-6" cx="7.40740741" cy="7.40740741" rx="1.48148148" ry="1.48148148"></ellipse>
                </g>
            </g>
        </g>
    </g>
</svg>