<svg id="Layer_1" data-name="Layer 1" xmlns="http://www.w3.org/2000/svg" viewBox="0 0 79.24 79.14"><defs><style>.cls-1{fill:#fff;}</style></defs><title>logo_white-launcher</title><circle class="cls-1" cx="53.94" cy="35.18" r="2.96"/><path class="cls-1" d="M84.44,30.45H80.61a33.41,33.41,0,0,0-61.22,0H15.56c-5.52,0-6.83,3.17-2.93,7.07l3.93,3.93c-.08,1-.14,2-.14,3,0,18.77,29.14,43.48,29.14,43.48a6.73,6.73,0,0,0,8.88,0S83.58,63.19,83.58,44.42c0-1-.05-2-.14-3l3.93-3.93C91.27,33.62,90,30.45,84.44,30.45ZM50,16.37A28.46,28.46,0,0,1,74.51,30.45h-9.7A14.86,14.86,0,0,0,50,45.27,14.85,14.85,0,0,0,35.19,30.45h-9.7A28.46,28.46,0,0,1,50,16.37Zm24.69,28.9A9.88,9.88,0,0,1,55,46.35V44.19a9.8,9.8,0,0,1,1.23-3.8h.13v-.21a9.87,9.87,0,0,1,18.33,5.08Zm-29.63,0A10,10,0,0,1,45,46.35a9.8,9.8,0,0,1-1.36,4,9.9,9.9,0,1,1,0-10.17l.13.21A9.8,9.8,0,0,1,45,44.19,10,10,0,0,1,45.06,45.27Zm8.71,36.94a5.72,5.72,0,0,1-7.55,0S30,68.47,23.83,54.77a14.8,14.8,0,0,0,22.39.36l1.57,1.57a3.13,3.13,0,0,0,4.42,0l1.57-1.57a14.78,14.78,0,0,0,22.39-.36C70,68.47,53.78,82.21,53.78,82.21Z" transform="translate(-10.38 -10.43)"/><circle class="cls-1" cx="25.3" cy="35.18" r="2.96"/></svg>